name rise43.5482peak65.4966fall89.1036.mot
datacolumns 19
datarows 18
range 13.49661000000000 13.52494600000000
endheader
time	ground_force1_vx	ground_force1_vy	ground_force1_vz	ground_force1_px	ground_force1_py	ground_force1_pz	ground_force2_vx	ground_force2_vy	ground_force2_vz	ground_force2_px	ground_force2_py	ground_force2_pz	ground_torque1_x	ground_torque1_y	ground_torque1_z	ground_torque2_x	ground_torque2_y	ground_torque2_z	
13.49661000000000	68.02936000000000	805.78962200000001	55.61894900000000	0.30123200000000	0.00000000000000	0.10159700000000	0.00000000000000	0.00000000000000	0.00000000000000	0.00000000000000	0.00000000000000	0.00000000000000	0.00000000000000	18.23402900000000	0.00000000000000	0.00000000000000	0.00000000000000	0.00000000000000	
13.49827600000000	67.69294499999999	810.33272899999997	55.82962100000000	0.30087800000000	0.00000000000000	0.10156300000000	0.00000000000000	0.00000000000000	0.00000000000000	0.00000000000000	0.00000000000000	0.00000000000000	0.00000000000000	18.32716000000000	0.00000000000000	0.00000000000000	0.00000000000000	0.00000000000000	
13.49995800000000	67.34299300000001	814.64819699999998	56.03691500000000	0.30052200000000	0.00000000000000	0.10153000000000	0.00000000000000	0.00000000000000	0.00000000000000	0.00000000000000	0.00000000000000	0.00000000000000	0.00000000000000	18.42130200000000	0.00000000000000	0.00000000000000	0.00000000000000	0.00000000000000	
13.50160700000000	66.97962000000000	818.73177699999997	56.24033200000000	0.30016100000000	0.00000000000000	0.10150100000000	0.00000000000000	0.00000000000000	0.00000000000000	0.00000000000000	0.00000000000000	0.00000000000000	0.00000000000000	18.51612800000000	0.00000000000000	0.00000000000000	0.00000000000000	0.00000000000000	
13.50328000000000	66.60292600000000	822.57964400000003	56.43931900000000	0.29979300000000	0.00000000000000	0.10147400000000	0.00000000000000	0.00000000000000	0.00000000000000	0.00000000000000	0.00000000000000	0.00000000000000	0.00000000000000	18.61128000000000	0.00000000000000	0.00000000000000	0.00000000000000	0.00000000000000	
13.50494900000000	66.21299700000000	826.18841399999997	56.63327600000000	0.29941600000000	0.00000000000000	0.10144900000000	0.00000000000000	0.00000000000000	0.00000000000000	0.00000000000000	0.00000000000000	0.00000000000000	0.00000000000000	18.70637000000000	0.00000000000000	0.00000000000000	0.00000000000000	0.00000000000000	
13.50661200000000	65.80991100000000	829.55515700000001	56.82155700000000	0.29902800000000	0.00000000000000	0.10142700000000	0.00000000000000	0.00000000000000	0.00000000000000	0.00000000000000	0.00000000000000	0.00000000000000	0.00000000000000	18.80098300000000	0.00000000000000	0.00000000000000	0.00000000000000	0.00000000000000	
13.50828100000000	65.39373999999999	832.67740700000002	57.00348400000000	0.29862700000000	0.00000000000000	0.10140800000000	0.00000000000000	0.00000000000000	0.00000000000000	0.00000000000000	0.00000000000000	0.00000000000000	0.00000000000000	18.89468200000000	0.00000000000000	0.00000000000000	0.00000000000000	0.00000000000000	
13.50994500000000	64.96455400000001	835.55317500000001	57.17834600000000	0.29821000000000	0.00000000000000	0.10139100000000	0.00000000000000	0.00000000000000	0.00000000000000	0.00000000000000	0.00000000000000	0.00000000000000	0.00000000000000	18.98701200000000	0.00000000000000	0.00000000000000	0.00000000000000	0.00000000000000	
13.51162400000000	64.52242500000000	838.18095200000005	57.34541200000000	0.29777600000000	0.00000000000000	0.10137700000000	0.00000000000000	0.00000000000000	0.00000000000000	0.00000000000000	0.00000000000000	0.00000000000000	0.00000000000000	19.07750200000000	0.00000000000000	0.00000000000000	0.00000000000000	0.00000000000000	
13.51327800000000	64.06742800000001	840.55971999999997	57.50393700000000	0.29732200000000	0.00000000000000	0.10136500000000	0.00000000000000	0.00000000000000	0.00000000000000	0.00000000000000	0.00000000000000	0.00000000000000	0.00000000000000	19.16567000000000	0.00000000000000	0.00000000000000	0.00000000000000	0.00000000000000	
13.51494100000000	63.59964700000000	842.68895699999996	57.65316700000000	0.29684700000000	0.00000000000000	0.10135500000000	0.00000000000000	0.00000000000000	0.00000000000000	0.00000000000000	0.00000000000000	0.00000000000000	0.00000000000000	19.25102700000000	0.00000000000000	0.00000000000000	0.00000000000000	0.00000000000000	
13.51660800000000	63.11917800000000	844.56863399999997	57.79234400000000	0.29634800000000	0.00000000000000	0.10134800000000	0.00000000000000	0.00000000000000	0.00000000000000	0.00000000000000	0.00000000000000	0.00000000000000	0.00000000000000	19.33308100000000	0.00000000000000	0.00000000000000	0.00000000000000	0.00000000000000	
13.51827700000000	62.62613000000000	846.19922299999996	57.92072000000000	0.29582400000000	0.00000000000000	0.10134400000000	0.00000000000000	0.00000000000000	0.00000000000000	0.00000000000000	0.00000000000000	0.00000000000000	0.00000000000000	19.41134100000000	0.00000000000000	0.00000000000000	0.00000000000000	0.00000000000000	
13.51994500000000	62.12062900000000	847.58169099999998	58.03755700000000	0.29527400000000	0.00000000000000	0.10134100000000	0.00000000000000	0.00000000000000	0.00000000000000	0.00000000000000	0.00000000000000	0.00000000000000	0.00000000000000	19.48531800000000	0.00000000000000	0.00000000000000	0.00000000000000	0.00000000000000	
13.52161400000000	61.60282300000000	848.71750399999996	58.14213400000000	0.29469500000000	0.00000000000000	0.10134100000000	0.00000000000000	0.00000000000000	0.00000000000000	0.00000000000000	0.00000000000000	0.00000000000000	0.00000000000000	19.55453400000000	0.00000000000000	0.00000000000000	0.00000000000000	0.00000000000000	
13.52327500000000	61.07288000000000	849.60861399999999	58.23375700000000	0.29408500000000	0.00000000000000	0.10134300000000	0.00000000000000	0.00000000000000	0.00000000000000	0.00000000000000	0.00000000000000	0.00000000000000	0.00000000000000	19.61852200000000	0.00000000000000	0.00000000000000	0.00000000000000	0.00000000000000	
13.52494600000000	60.53099600000000	850.25746200000003	58.31176200000000	0.29344500000000	0.00000000000000	0.10134800000000	0.00000000000000	0.00000000000000	0.00000000000000	0.00000000000000	0.00000000000000	0.00000000000000	0.00000000000000	19.67683200000000	0.00000000000000	0.00000000000000	0.00000000000000	0.00000000000000	
